<svg aria-hidden="true" style="width:0;height:0;position:absolute;overflow:hidden" xmlns="http://www.w3.org/2000/svg"><defs><symbol id="icon-close" viewBox="0 0 32 32"><path d="M23.733 10.304 22.229 8.8l-5.963 5.963L10.303 8.8l-1.504 1.504 5.963 5.963-5.963 5.963 1.504 1.504 5.963-5.963 5.963 5.963 1.504-1.504-5.963-5.963 5.963-5.963z"/></symbol><symbol id="icon-facebook" viewBox="0 0 32 32"><path d="M21.33 5.313h2.921V.225C23.747.156 22.014 0 19.995 0c-4.212 0-7.097 2.649-7.097 7.519V12H8.25v5.688h4.648V32h5.699V17.689h4.46l.708-5.688h-5.169V8.082c.001-1.644.444-2.769 2.735-2.769z"/></symbol><symbol id="icon-instagram" viewBox="0 0 32 32"><path d="M31.969 9.408c-.075-1.7-.35-2.869-.744-3.882a7.806 7.806 0 0 0-1.851-2.838A7.867 7.867 0 0 0 26.542.844C25.523.45 24.36.175 22.66.1 20.947.019 20.403 0 16.059 0s-4.888.019-6.595.094c-1.7.075-2.869.35-3.882.744a7.803 7.803 0 0 0-2.838 1.85A7.867 7.867 0 0 0 .9 5.52C.506 6.539.231 7.702.156 9.402c-.081 1.713-.1 2.257-.1 6.601s.019 4.888.094 6.595c.075 1.7.35 2.869.744 3.882a7.895 7.895 0 0 0 1.85 2.838 7.867 7.867 0 0 0 2.832 1.844c1.019.394 2.182.669 3.882.744 1.706.075 2.25.094 6.595.094s4.888-.019 6.595-.094c1.7-.075 2.869-.35 3.882-.744a8.184 8.184 0 0 0 4.682-4.682c.394-1.019.669-2.182.744-3.882.075-1.707.094-2.251.094-6.595s-.006-4.888-.081-6.595zm-2.882 13.065c-.069 1.563-.331 2.407-.55 2.969a5.31 5.31 0 0 1-3.038 3.038c-.563.219-1.413.481-2.969.55-1.688.075-2.194.094-6.464.094s-4.782-.019-6.464-.094c-1.563-.069-2.407-.331-2.969-.55a4.926 4.926 0 0 1-1.838-1.194 4.974 4.974 0 0 1-1.194-1.838c-.219-.563-.481-1.413-.55-2.969-.075-1.688-.094-2.194-.094-6.464s.019-4.782.094-6.464c.069-1.563.331-2.407.55-2.969a4.868 4.868 0 0 1 1.2-1.838A4.974 4.974 0 0 1 6.639 3.55c.563-.219 1.413-.481 2.969-.55 1.688-.075 2.194-.094 6.464-.094 4.276 0 4.782.019 6.464.094 1.563.069 2.407.331 2.969.55a4.914 4.914 0 0 1 1.838 1.194 4.974 4.974 0 0 1 1.194 1.838c.219.563.481 1.413.55 2.969.075 1.688.094 2.194.094 6.464s-.019 4.77-.094 6.458z"/><path d="M16.059 7.783c-4.538 0-8.22 3.682-8.22 8.22s3.682 8.22 8.22 8.22c4.539 0 8.22-3.682 8.22-8.22s-3.682-8.22-8.22-8.22zm0 13.552a5.333 5.333 0 0 1 0-10.664 5.333 5.333 0 0 1 0 10.664zM26.524 7.458a1.919 1.919 0 1 1-3.838 0 1.919 1.919 0 0 1 3.838 0z"/></symbol><symbol id="icon-linkedin" viewBox="0 0 32 32"><path d="M31.992 32v-.001H32V20.263c0-5.741-1.236-10.164-7.948-10.164-3.227 0-5.392 1.771-6.276 3.449h-.093v-2.913h-6.364v21.364h6.627V21.42c0-2.785.528-5.479 3.977-5.479 3.399 0 3.449 3.179 3.449 5.657v10.401h6.62zM.528 10.636h6.635V32H.528V10.636zM3.843 0C1.722 0 0 1.721 0 3.843s1.721 3.879 3.843 3.879c2.121 0 3.843-1.757 3.843-3.879A3.846 3.846 0 0 0 3.843 0z"/></symbol><symbol id="icon-logo" viewBox="0 0 40 32"><path d="m22.741 9.64-.743-.571a.563.563 0 0 0-.794.08L10.917 21.046l.159.177 2.548-2.366a.4.4 0 0 1-.098-.673.394.394 0 0 1 .621.187l3.359-3.137c.051-.042.116-.064.182-.064s.13.023.182.064l.17.126a.283.283 0 0 0 .38-.045l4.392-4.96a.467.467 0 0 0 .128-.372.465.465 0 0 0-.196-.341z"/><path d="M27.575 12.989a22.867 22.867 0 0 1-7.444 3.514 40.07 40.07 0 0 1-8.097 1.211c.055.406.154.804.295 1.189 1.543 1.406 13.164-.994 15.433-3.771.482-.577-.187-2.143-.187-2.143zm-13.799 5.868a.39.39 0 0 1-.272-.663.388.388 0 0 1 .421-.084.394.394 0 0 1 0 .72.38.38 0 0 1-.149.028zM2.797 12.166l.091-.394 1.475.337c.122.226.197.475.221.731.028.271.011.546-.051.811a2.147 2.147 0 0 1-.488.994 1.94 1.94 0 0 1-.874.571 2.054 2.054 0 0 1-1.072.04 1.983 1.983 0 0 1-.948-.503 1.894 1.894 0 0 1-.539-.897 2.173 2.173 0 0 1 0-1.143c.061-.28.17-.547.323-.789.145-.22.339-.402.567-.531l.204.314a1.635 1.635 0 0 0-.749 1.108c-.07.296-.065.604.017.897.076.278.227.529.437.726.215.21.485.354.777.417.284.08.584.08.868 0 .272-.09.516-.25.709-.463.198-.23.335-.507.397-.806a1.771 1.771 0 0 0-.068-1.091l-1.299-.331zM6.008 8.572l-1.322 1.777.567 1.023-.261.354-2.099-3.857.244-.337 4.273.926-.267.354-1.135-.24zm-.374-.092-2.27-.514 1.135 2.051L5.634 8.48zM5.634 4.886l.34-.257 2.162 2.914L9.918 6.2l.216.291-2.116 1.594-2.383-3.2zM9.209 2.503l.38-.171 1.498 3.303 2.026-.926.148.331-2.406 1.103-1.646-3.64zM16.686 3.817l.085.36-2.735.646-.908-3.897 2.655-.623.079.354-2.27.531.323 1.383 1.997-.474.085.354-2.003.469.34 1.446 2.349-.549zM20.585 3.96l-.948-1.257a2.811 2.811 0 0 1-.318 0l-1.067.034.04 1.269h-.42l-.131-4L19.25 0a1.78 1.78 0 0 1 1.203.326 1.249 1.249 0 0 1 .465.994 1.33 1.33 0 0 1-.21.8 1.32 1.32 0 0 1-.658.486l.993 1.337-.46.017zm-.397-1.88a.91.91 0 0 0 .289-.748.929.929 0 0 0-.335-.732 1.37 1.37 0 0 0-.891-.234l-1.078.04.068 2 1.055-.034c.322.012.637-.091.891-.291zM23.586 2.897l-.204 1.366-.414-.063.21-1.343L22.004 0l.443.069 1.004 2.434L25.153.486l.397.086-1.963 2.326zM29.198 2.657l.494.646-.216.171-.494-.663-.312.749-.238-.103.318-.749-.817.109v-.274l.806-.091-.499-.646.221-.171.437.651.306-.754.244.103-.289.766.817-.114v.28l-.777.091zM31.093 7.263a1.585 1.585 0 0 1-.244-.691l.335-.149c.025.226.099.445.216.64.127.219.292.412.488.571.202.195.46.321.738.36a.617.617 0 0 0 .533-.223.506.506 0 0 0 .13-.389 1.063 1.063 0 0 0-.136-.394 6.241 6.241 0 0 0-.346-.509 5.012 5.012 0 0 1-.408-.629 1.163 1.163 0 0 1-.148-.537c0-.212.079-.416.221-.571a1.04 1.04 0 0 1 .471-.326c.206-.06.424-.06.63 0 .265.087.51.227.721.411.175.146.329.315.46.503.12.174.211.367.267.571l-.323.171a2.021 2.021 0 0 0-.25-.537 2.057 2.057 0 0 0-.38-.394 1.256 1.256 0 0 0-.732-.349.602.602 0 0 0-.533.234.485.485 0 0 0-.13.389c.013.144.06.283.136.406.079.131.193.303.346.509.152.195.288.401.408.617.094.164.147.348.153.537a.845.845 0 0 1-.221.571c-.124.153-.29.266-.477.326a1.09 1.09 0 0 1-.63 0 2.101 2.101 0 0 1-.726-.411 2.596 2.596 0 0 1-.567-.709zM36.801 8.097l-.8-1.143.295-.211 1.844 2.651-.295.211-.8-1.143-2.962 2.086-.238-.349 2.956-2.103zM35.53 12.794c.101-.345.298-.655.567-.891a2 2 0 0 1 .931-.474 2.034 2.034 0 0 1 1.067.04c.334.111.633.308.868.571.244.283.411.626.482.994.094.361.094.741 0 1.103-.104.344-.3.652-.567.891a2.1 2.1 0 0 1-2.026.445 1.908 1.908 0 0 1-.868-.571 2.149 2.149 0 0 1-.482-.989 2.214 2.214 0 0 1 .028-1.12zm.743 1.817c.189.217.435.377.709.463a1.741 1.741 0 0 0 1.645-.366 1.63 1.63 0 0 0 .448-.714 1.857 1.857 0 0 0-.368-1.68 1.624 1.624 0 0 0-.732-.463 1.682 1.682 0 0 0-.874 0 1.602 1.602 0 0 0-1.22 1.114c-.077.29-.077.596 0 .886.062.284.197.546.392.76zM35.099 19.429l1.47-.571c0-.103.034-.206.062-.314l.278-1.034-1.203-.314.108-.406 3.836 1.034-.386 1.446c-.087.422-.32.799-.658 1.063a1.228 1.228 0 0 1-1.078.16 1.234 1.234 0 0 1-.971-1.206l-1.566.571.108-.429zm1.901.16a1.011 1.011 0 0 0 1.424.383 1.37 1.37 0 0 0 .482-.806l.272-1.029-1.923-.52-.272 1.029c-.105.306-.099.64.017.943zM33.062 23.109l-.289-.223 1.702-2.257 3.166 2.417-1.645 2.189-.289-.223 1.39-1.846-1.135-.863-1.243 1.651-.284-.217 1.271-1.651-1.175-.897-1.47 1.92zM31.734 27.663l-.811.046v-.274l.811-.006-.437-.68.221-.143.431.686.352-.766.244.131-.386.72.811-.046v.28h-.823l.437.68-.221.143-.431-.686-.375.743-.238-.137.414-.691zM24.358 27.206l.687.383c.115-.223.276-.418.471-.574s.422-.268.663-.329c.226-.071.463-.096.698-.074.204.016.4.087.567.206a.91.91 0 0 1 .318.457c.068.226.056.468-.034.686a2.844 2.844 0 0 1-.567.794c.187.101.361.226.516.371a.992.992 0 0 1 .233.394.761.761 0 0 1-.148.669 1.09 1.09 0 0 1-.636.44.982.982 0 0 1-.704 0 .714.714 0 0 1-.409-.485.783.783 0 0 1 .04-.571c.13-.26.301-.497.505-.703l-1.367-.766a2.732 2.732 0 0 0-.034.817h-.346a2.76 2.76 0 0 1 .113-.994l-.715-.4.148-.32zm.987.571 1.504.84c.197-.189.36-.412.482-.657a.733.733 0 0 0 0-.514.627.627 0 0 0-.397-.429 1.128 1.128 0 0 0-.726 0c-.192.051-.372.144-.524.273s-.276.289-.361.47l.023.017zm2.134 2.286a.522.522 0 0 0 .045-.422.699.699 0 0 0-.182-.297 2.4 2.4 0 0 0-.471-.314 2.947 2.947 0 0 0-.448.571.57.57 0 0 0-.045.423.482.482 0 0 0 .25.302.629.629 0 0 0 .448 0 .674.674 0 0 0 .38-.269l.023.006zM17.441 31.611l.079-4h.403l-.062 3.2 1.611-2.663h.199l1.509 2.709.057-3.183h.403l-.074 4h-.346l-1.668-2.989-1.765 2.931-.346-.006zM15.467 27.429a1.954 1.954 0 0 1 .516 1.977c-.093.354-.28.675-.539.931a1.9 1.9 0 0 1-.914.503 2.186 2.186 0 0 1-1.101-.034 2.13 2.13 0 0 1-.953-.52 1.923 1.923 0 0 1-.528-.903 2.122 2.122 0 0 1 .568-2.012 1.95 1.95 0 0 1 .896-.514 2.173 2.173 0 0 1 1.095.034c.361.092.691.277.959.537zm-1.935-.2a1.516 1.516 0 0 0-.732.411c-.209.21-.358.472-.431.76a1.641 1.641 0 0 0 0 .874c.067.278.21.532.414.731.214.21.477.362.766.44.288.074.591.074.879 0a1.62 1.62 0 0 0 .738-.411c.208-.21.357-.473.431-.76a1.663 1.663 0 0 0 0-.88 1.61 1.61 0 0 0-.42-.731 1.698 1.698 0 0 0-.772-.434 1.621 1.621 0 0 0-.874 0zM9.237 24.571l.153 1.571c.097.042.192.09.284.143l.925.537.624-1.109.369.211-1.986 3.446-1.294-.749a1.81 1.81 0 0 1-.851-.914 1.27 1.27 0 0 1 .125-1.086c.132-.25.341-.451.596-.571.259-.108.545-.13.817-.063l-.165-1.68.403.263zm-.647 1.806a1.023 1.023 0 0 0-.766.876c-.016.137-.005.277.034.41.133.296.364.536.652.68l.914.531.993-1.714-.913-.531a1.398 1.398 0 0 0-.914-.28v.029zM5.878 21.891l.255-.257 1.958 2.029-2.837 2.789-1.889-1.966.261-.257 1.606 1.663.97-.989-1.407-1.474.272-.263 1.435 1.486 1.055-1.034-1.679-1.726zM1.662 19.646l.136-.789.267.04-.153.811.755-.28.091.251-.766.263.63.537-.182.206-.607-.571-.142.811-.272-.051.159-.811-.76.274-.085-.223.76-.269-.63-.531.187-.206.613.537z"/></symbol><symbol id="icon-mail" viewBox="0 0 32 32"><path stroke-linejoin="round" stroke-linecap="round" stroke-width="1.333" d="M6.4 6.667h19.2c1.32 0 2.4 1.05 2.4 2.333v14c0 1.283-1.08 2.333-2.4 2.333H6.4C5.08 25.333 4 24.283 4 23V9c0-1.283 1.08-2.333 2.4-2.333z"/><path stroke-linejoin="round" stroke-linecap="round" stroke-width="1.333" d="m26.667 9.333-10.667 8-10.667-8"/></symbol><symbol id="icon-map" viewBox="0 0 32 32"><path stroke-linejoin="round" stroke-linecap="round" stroke-width="1.333" d="M26.667 13.818C26.667 21.454 16 28 16 28S5.333 21.455 5.333 13.818C5.333 8.396 10.109 4 16 4s10.667 4.396 10.667 9.818z"/><path stroke-linejoin="round" stroke-linecap="round" stroke-width="1.333" d="M16 18.667a4 4 0 1 0 0-8 4 4 0 0 0 0 8z"/></symbol><symbol id="icon-menu" viewBox="0 0 32 32"><path d="M6.4 11.733V9.6h19.2v2.133H6.4zm0 5.334h19.2v-2.133H6.4v2.133zm0 5.333h19.2v-2.133H6.4V22.4z"/></symbol><symbol id="icon-phone" viewBox="0 0 32 32"><path stroke-linejoin="round" stroke-linecap="round" stroke-width="1.333" d="M26.666 21.337v3.218a2.146 2.146 0 0 1-2.338 2.145 21.239 21.239 0 0 1-9.257-3.293 20.914 20.914 0 0 1-6.436-6.436 21.221 21.221 0 0 1-3.293-9.3 2.144 2.144 0 0 1 2.134-2.338h3.218a2.144 2.144 0 0 1 2.145 1.845c.136 1.03.388 2.041.751 3.014a2.144 2.144 0 0 1-.483 2.263l-1.362 1.362a17.162 17.162 0 0 0 6.436 6.436l1.362-1.362a2.146 2.146 0 0 1 2.263-.483c.973.363 1.984.615 3.014.751a2.144 2.144 0 0 1 1.845 2.177z"/></symbol><symbol id="icon-twitter" viewBox="0 0 32 32"><path d="M32 6.078c-1.19.522-2.458.868-3.78 1.036a6.523 6.523 0 0 0 2.886-3.626 13.11 13.11 0 0 1-4.16 1.588A6.574 6.574 0 0 0 22.154 3c-3.632 0-6.556 2.948-6.556 6.562 0 .52.044 1.02.152 1.496-5.454-.266-10.28-2.88-13.522-6.862a6.605 6.605 0 0 0-.898 3.316 6.57 6.57 0 0 0 2.914 5.452 6.479 6.479 0 0 1-2.964-.808v.072c0 3.188 2.274 5.836 5.256 6.446a6.548 6.548 0 0 1-1.72.216 5.8 5.8 0 0 1-1.242-.112c.85 2.598 3.262 4.508 6.13 4.57a13.182 13.182 0 0 1-8.134 2.798c-.538 0-1.054-.024-1.57-.09A18.469 18.469 0 0 0 10.064 29c12.072 0 18.672-10 18.672-18.668 0-.29-.01-.57-.024-.848A13.087 13.087 0 0 0 32 6.078z"/></symbol></defs></svg>