<svg aria-hidden="true" style="position: absolute; width: 0; height: 0; overflow: hidden;" version="1.1" xmlns="http://www.w3.org/2000/svg" xmlns:xlink="http://www.w3.org/1999/xlink">
<defs>
<symbol id="icon-close" viewBox="0 0 32 32">
<path d="M23.733 10.304l-1.504-1.504-5.963 5.963-5.963-5.963-1.504 1.504 5.963 5.963-5.963 5.963 1.504 1.504 5.963-5.963 5.963 5.963 1.504-1.504-5.963-5.963 5.963-5.963z"></path>
</symbol>
<symbol id="icon-facebook" viewBox="0 0 32 32">
<path d="M21.33 5.313h2.921v-5.088c-0.504-0.069-2.237-0.225-4.256-0.225-4.212 0-7.097 2.649-7.097 7.519v4.481h-4.648v5.688h4.648v14.312h5.699v-14.311h4.46l0.708-5.688h-5.169v-3.919c0.001-1.644 0.444-2.769 2.735-2.769z"></path>
</symbol>
<symbol id="icon-instagram" viewBox="0 0 32 32">
<path d="M31.969 9.408c-0.075-1.7-0.35-2.869-0.744-3.882-0.406-1.075-1.032-2.038-1.851-2.838-0.8-0.813-1.769-1.444-2.832-1.844-1.019-0.394-2.182-0.669-3.882-0.744-1.713-0.081-2.257-0.1-6.601-0.1s-4.888 0.019-6.595 0.094c-1.7 0.075-2.869 0.35-3.882 0.744-1.075 0.406-2.038 1.031-2.838 1.85-0.813 0.8-1.444 1.769-1.844 2.832-0.394 1.019-0.669 2.182-0.744 3.882-0.081 1.713-0.1 2.257-0.1 6.601s0.019 4.888 0.094 6.595c0.075 1.7 0.35 2.869 0.744 3.882 0.406 1.075 1.038 2.038 1.85 2.838 0.8 0.813 1.769 1.444 2.832 1.844 1.019 0.394 2.182 0.669 3.882 0.744 1.706 0.075 2.25 0.094 6.595 0.094s4.888-0.019 6.595-0.094c1.7-0.075 2.869-0.35 3.882-0.744 2.151-0.832 3.851-2.532 4.682-4.682 0.394-1.019 0.669-2.182 0.744-3.882 0.075-1.707 0.094-2.251 0.094-6.595s-0.006-4.888-0.081-6.595zM29.087 22.473c-0.069 1.563-0.331 2.407-0.55 2.969-0.538 1.394-1.644 2.5-3.038 3.038-0.563 0.219-1.413 0.481-2.969 0.55-1.688 0.075-2.194 0.094-6.464 0.094s-4.782-0.019-6.464-0.094c-1.563-0.069-2.407-0.331-2.969-0.55-0.694-0.256-1.325-0.663-1.838-1.194-0.531-0.519-0.938-1.144-1.194-1.838-0.219-0.563-0.481-1.413-0.55-2.969-0.075-1.688-0.094-2.194-0.094-6.464s0.019-4.782 0.094-6.464c0.069-1.563 0.331-2.407 0.55-2.969 0.256-0.694 0.663-1.325 1.2-1.838 0.519-0.531 1.144-0.938 1.838-1.194 0.563-0.219 1.413-0.481 2.969-0.55 1.688-0.075 2.194-0.094 6.464-0.094 4.276 0 4.782 0.019 6.464 0.094 1.563 0.069 2.407 0.331 2.969 0.55 0.694 0.256 1.325 0.662 1.838 1.194 0.531 0.519 0.938 1.144 1.194 1.838 0.219 0.563 0.481 1.413 0.55 2.969 0.075 1.688 0.094 2.194 0.094 6.464s-0.019 4.77-0.094 6.458z"></path>
<path d="M16.059 7.783c-4.538 0-8.22 3.682-8.22 8.22s3.682 8.22 8.22 8.22c4.539 0 8.22-3.682 8.22-8.22s-3.682-8.22-8.22-8.22zM16.059 21.335c-2.944 0-5.332-2.388-5.332-5.332s2.388-5.332 5.332-5.332c2.944 0 5.332 2.388 5.332 5.332s-2.388 5.332-5.332 5.332z"></path>
<path d="M26.524 7.458c0 1.060-0.859 1.919-1.919 1.919s-1.919-0.859-1.919-1.919c0-1.060 0.859-1.919 1.919-1.919s1.919 0.859 1.919 1.919z"></path>
</symbol>
<symbol id="icon-linkedin" viewBox="0 0 32 32">
<path d="M31.992 32v-0.001h0.008v-11.736c0-5.741-1.236-10.164-7.948-10.164-3.227 0-5.392 1.771-6.276 3.449h-0.093v-2.913h-6.364v21.364h6.627v-10.579c0-2.785 0.528-5.479 3.977-5.479 3.399 0 3.449 3.179 3.449 5.657v10.401h6.62z"></path>
<path d="M0.528 10.636h6.635v21.364h-6.635v-21.364z"></path>
<path d="M3.843 0c-2.121 0-3.843 1.721-3.843 3.843s1.721 3.879 3.843 3.879c2.121 0 3.843-1.757 3.843-3.879-0.001-2.121-1.723-3.843-3.843-3.843v0z"></path>
</symbol>
<symbol id="icon-logo" viewBox="0 0 40 32">
<path d="M22.741 9.64l-0.743-0.571c-0.116-0.095-0.265-0.139-0.413-0.124s-0.286 0.088-0.381 0.204l-10.287 11.897 0.159 0.177 2.548-2.366c-0.085-0.034-0.155-0.098-0.198-0.179s-0.057-0.175-0.039-0.265c0.018-0.090 0.067-0.171 0.139-0.229s0.161-0.088 0.252-0.087c0.082 0 0.163 0.027 0.229 0.076s0.115 0.119 0.14 0.198l3.359-3.137c0.051-0.042 0.116-0.064 0.182-0.064s0.13 0.023 0.182 0.064l0.17 0.126c0.058 0.042 0.128 0.060 0.199 0.052s0.135-0.043 0.181-0.097l4.392-4.96c0.047-0.049 0.082-0.108 0.104-0.172s0.030-0.133 0.024-0.2c-0.006-0.068-0.027-0.133-0.061-0.192s-0.080-0.11-0.135-0.149z"></path>
<path d="M27.575 12.989c-2.251 1.613-4.773 2.804-7.444 3.514-2.651 0.679-5.364 1.085-8.097 1.211 0.055 0.406 0.154 0.804 0.295 1.189 1.543 1.406 13.164-0.994 15.433-3.771 0.482-0.577-0.187-2.143-0.187-2.143zM13.776 18.857c-0.076 0-0.151-0.023-0.214-0.066s-0.113-0.103-0.142-0.174-0.037-0.149-0.022-0.224c0.015-0.075 0.052-0.145 0.106-0.199s0.123-0.091 0.198-0.106c0.075-0.015 0.152-0.007 0.223 0.022s0.131 0.079 0.173 0.143 0.065 0.139 0.065 0.216c0.001 0.051-0.009 0.102-0.028 0.15s-0.047 0.091-0.084 0.127-0.079 0.065-0.126 0.084c-0.047 0.019-0.098 0.029-0.149 0.028z"></path>
<path d="M2.797 12.166l0.091-0.394 1.475 0.337c0.122 0.226 0.197 0.475 0.221 0.731 0.028 0.271 0.011 0.546-0.051 0.811-0.073 0.369-0.242 0.712-0.488 0.994-0.234 0.267-0.536 0.464-0.874 0.571-0.348 0.108-0.718 0.122-1.072 0.040-0.356-0.077-0.683-0.251-0.948-0.503-0.26-0.242-0.447-0.553-0.539-0.897-0.102-0.374-0.102-0.769 0-1.143 0.061-0.28 0.17-0.547 0.323-0.789 0.145-0.22 0.339-0.402 0.567-0.531l0.204 0.314c-0.196 0.121-0.363 0.282-0.493 0.473s-0.217 0.408-0.256 0.635c-0.070 0.296-0.065 0.604 0.017 0.897 0.076 0.278 0.227 0.529 0.437 0.726 0.215 0.21 0.485 0.354 0.777 0.417 0.284 0.080 0.584 0.080 0.868 0 0.272-0.090 0.516-0.25 0.709-0.463 0.198-0.23 0.335-0.507 0.397-0.806 0.093-0.362 0.069-0.744-0.068-1.091l-1.299-0.331z"></path>
<path d="M6.008 8.572l-1.322 1.777 0.567 1.023-0.261 0.354-2.099-3.857 0.244-0.337 4.273 0.926-0.267 0.354-1.135-0.24zM5.634 8.48l-2.27-0.514 1.135 2.051 1.135-1.537z"></path>
<path d="M5.634 4.886l0.34-0.257 2.162 2.914 1.782-1.343 0.216 0.291-2.116 1.594-2.383-3.2z"></path>
<path d="M9.209 2.503l0.38-0.171 1.498 3.303 2.026-0.926 0.148 0.331-2.406 1.103-1.646-3.64z"></path>
<path d="M16.686 3.817l0.085 0.36-2.735 0.646-0.908-3.897 2.655-0.623 0.079 0.354-2.27 0.531 0.323 1.383 1.997-0.474 0.085 0.354-2.003 0.469 0.34 1.446 2.349-0.549z"></path>
<path d="M20.585 3.96l-0.948-1.257c-0.106 0.006-0.212 0.006-0.318 0l-1.067 0.034 0.040 1.269h-0.42l-0.131-4 1.509-0.006c0.427-0.040 0.854 0.076 1.203 0.326 0.147 0.119 0.266 0.271 0.346 0.443s0.121 0.361 0.119 0.551c0.017 0.282-0.057 0.563-0.21 0.8-0.163 0.228-0.393 0.398-0.658 0.486l0.993 1.337-0.46 0.017zM20.188 2.080c0.102-0.094 0.181-0.211 0.231-0.34s0.070-0.269 0.058-0.408c0.003-0.139-0.026-0.278-0.084-0.405s-0.144-0.238-0.251-0.327c-0.262-0.179-0.576-0.261-0.891-0.234l-1.078 0.040 0.068 2 1.055-0.034c0.322 0.012 0.637-0.091 0.891-0.291z"></path>
<path d="M23.586 2.897l-0.204 1.366-0.414-0.063 0.21-1.343-1.174-2.857 0.443 0.069 1.004 2.434 1.702-2.017 0.397 0.086-1.963 2.326z"></path>
<path d="M29.198 2.657l0.494 0.646-0.216 0.171-0.494-0.663-0.312 0.749-0.238-0.103 0.318-0.749-0.817 0.109v-0.274l0.806-0.091-0.499-0.646 0.221-0.171 0.437 0.651 0.306-0.754 0.244 0.103-0.289 0.766 0.817-0.114v0.28l-0.777 0.091z"></path>
<path d="M31.093 7.263c-0.134-0.208-0.218-0.445-0.244-0.691l0.335-0.149c0.025 0.226 0.099 0.445 0.216 0.64 0.127 0.219 0.292 0.412 0.488 0.571 0.202 0.195 0.46 0.321 0.738 0.36 0.1 0.009 0.201-0.006 0.294-0.045s0.175-0.1 0.239-0.178c0.047-0.052 0.083-0.114 0.105-0.181s0.031-0.138 0.025-0.208c-0.019-0.139-0.065-0.273-0.136-0.394-0.107-0.175-0.222-0.345-0.346-0.509-0.151-0.199-0.288-0.409-0.408-0.629-0.092-0.164-0.143-0.349-0.148-0.537-0-0.212 0.079-0.416 0.221-0.571 0.124-0.151 0.287-0.264 0.471-0.326 0.206-0.060 0.424-0.060 0.63 0 0.265 0.087 0.51 0.227 0.721 0.411 0.175 0.146 0.329 0.315 0.46 0.503 0.12 0.174 0.211 0.367 0.267 0.571l-0.323 0.171c-0.056-0.19-0.141-0.371-0.25-0.537-0.109-0.148-0.237-0.281-0.38-0.394-0.199-0.194-0.456-0.317-0.732-0.349-0.101-0.009-0.203 0.008-0.296 0.049s-0.175 0.104-0.237 0.185c-0.048 0.051-0.085 0.113-0.107 0.18s-0.030 0.138-0.023 0.209c0.013 0.144 0.060 0.283 0.136 0.406 0.079 0.131 0.193 0.303 0.346 0.509 0.152 0.195 0.288 0.401 0.408 0.617 0.094 0.164 0.147 0.348 0.153 0.537 0 0.212-0.079 0.416-0.221 0.571-0.124 0.153-0.29 0.266-0.477 0.326-0.205 0.062-0.424 0.062-0.63 0-0.267-0.087-0.514-0.227-0.726-0.411-0.229-0.201-0.421-0.441-0.567-0.709z"></path>
<path d="M36.801 8.097l-0.8-1.143 0.295-0.211 1.844 2.651-0.295 0.211-0.8-1.143-2.962 2.086-0.238-0.349 2.956-2.103z"></path>
<path d="M35.53 12.794c0.101-0.345 0.298-0.655 0.567-0.891 0.263-0.238 0.584-0.401 0.931-0.474 0.353-0.082 0.721-0.068 1.067 0.040 0.334 0.111 0.633 0.308 0.868 0.571 0.244 0.283 0.411 0.626 0.482 0.994 0.094 0.361 0.094 0.741 0 1.103-0.104 0.344-0.3 0.652-0.567 0.891-0.271 0.244-0.6 0.413-0.955 0.491s-0.724 0.062-1.071-0.046c-0.336-0.106-0.637-0.304-0.868-0.571-0.243-0.282-0.41-0.622-0.482-0.989-0.087-0.37-0.077-0.755 0.028-1.12zM36.273 14.611c0.189 0.217 0.435 0.377 0.709 0.463 0.283 0.083 0.582 0.092 0.869 0.028s0.554-0.199 0.776-0.394c0.209-0.194 0.364-0.441 0.448-0.714 0.079-0.289 0.087-0.593 0.023-0.886s-0.199-0.565-0.391-0.794c-0.198-0.218-0.451-0.378-0.732-0.463-0.286-0.077-0.587-0.077-0.874 0-0.289 0.056-0.556 0.192-0.772 0.394-0.211 0.195-0.366 0.444-0.448 0.72-0.077 0.29-0.077 0.596 0 0.886 0.062 0.284 0.197 0.546 0.392 0.76z"></path>
<path d="M35.099 19.429l1.47-0.571c0-0.103 0.034-0.206 0.062-0.314l0.278-1.034-1.203-0.314 0.108-0.406 3.836 1.034-0.386 1.446c-0.087 0.422-0.32 0.799-0.658 1.063-0.155 0.109-0.333 0.18-0.52 0.207s-0.378 0.012-0.558-0.047c-0.274-0.060-0.519-0.212-0.696-0.431s-0.273-0.492-0.275-0.775l-1.566 0.571 0.108-0.429zM37 19.589c0.066 0.121 0.157 0.228 0.265 0.314s0.233 0.148 0.366 0.184 0.272 0.044 0.408 0.024c0.136-0.020 0.267-0.067 0.385-0.139 0.25-0.203 0.421-0.488 0.482-0.806l0.272-1.029-1.923-0.52-0.272 1.029c-0.105 0.306-0.099 0.64 0.017 0.943z"></path>
<path d="M33.062 23.109l-0.289-0.223 1.702-2.257 3.166 2.417-1.645 2.189-0.289-0.223 1.39-1.846-1.135-0.863-1.243 1.651-0.284-0.217 1.271-1.651-1.175-0.897-1.47 1.92z"></path>
<path d="M31.734 27.663l-0.811 0.046v-0.274l0.811-0.006-0.437-0.68 0.221-0.143 0.431 0.686 0.352-0.766 0.244 0.131-0.386 0.72 0.811-0.046v0.28h-0.823l0.437 0.68-0.221 0.143-0.431-0.686-0.375 0.743-0.238-0.137 0.414-0.691z"></path>
<path d="M24.358 27.206l0.687 0.383c0.115-0.223 0.276-0.418 0.471-0.574s0.422-0.268 0.663-0.329c0.226-0.071 0.463-0.096 0.698-0.074 0.204 0.016 0.4 0.087 0.567 0.206 0.151 0.115 0.262 0.275 0.318 0.457 0.068 0.226 0.056 0.468-0.034 0.686-0.142 0.296-0.334 0.564-0.567 0.794 0.187 0.101 0.361 0.226 0.516 0.371 0.107 0.111 0.187 0.246 0.233 0.394 0.029 0.115 0.031 0.236 0.005 0.352s-0.078 0.225-0.153 0.317c-0.151 0.22-0.378 0.376-0.636 0.44-0.227 0.087-0.477 0.087-0.704 0-0.101-0.044-0.19-0.11-0.261-0.194s-0.121-0.184-0.148-0.291c-0.059-0.189-0.045-0.393 0.040-0.571 0.13-0.26 0.301-0.497 0.505-0.703l-1.367-0.766c-0.052 0.269-0.064 0.545-0.034 0.817h-0.346c-0.023-0.336 0.015-0.673 0.113-0.994l-0.715-0.4 0.148-0.32zM25.345 27.777l1.504 0.84c0.197-0.189 0.36-0.412 0.482-0.657 0.062-0.166 0.062-0.349 0-0.514-0.026-0.099-0.076-0.19-0.145-0.265s-0.156-0.131-0.252-0.164c-0.236-0.080-0.491-0.080-0.726 0-0.192 0.051-0.372 0.144-0.524 0.273s-0.276 0.289-0.361 0.47l0.023 0.017zM27.479 30.063c0.037-0.063 0.060-0.134 0.068-0.206s0-0.147-0.023-0.216c-0.035-0.113-0.097-0.215-0.182-0.297-0.144-0.123-0.302-0.228-0.471-0.314-0.172 0.171-0.323 0.363-0.448 0.571-0.069 0.13-0.085 0.281-0.045 0.423 0.018 0.065 0.050 0.126 0.093 0.178s0.097 0.095 0.157 0.124c0.144 0.055 0.304 0.055 0.448 0 0.154-0.041 0.289-0.137 0.38-0.269l0.023 0.006z"></path>
<path d="M17.441 31.611l0.079-4h0.403l-0.062 3.2 1.611-2.663h0.199l1.509 2.709 0.057-3.183h0.403l-0.074 4h-0.346l-1.668-2.989-1.765 2.931-0.346-0.006z"></path>
<path d="M15.467 27.429c0.259 0.249 0.445 0.566 0.536 0.915s0.084 0.717-0.020 1.062c-0.093 0.354-0.28 0.675-0.539 0.931-0.252 0.25-0.569 0.424-0.914 0.503-0.364 0.083-0.743 0.071-1.101-0.034-0.357-0.088-0.685-0.267-0.953-0.52-0.256-0.246-0.438-0.558-0.528-0.903-0.087-0.356-0.081-0.729 0.019-1.082s0.289-0.673 0.549-0.93c0.248-0.249 0.557-0.427 0.896-0.514 0.362-0.082 0.739-0.071 1.095 0.034 0.361 0.092 0.691 0.277 0.959 0.537zM13.532 27.229c-0.278 0.065-0.531 0.208-0.732 0.411-0.209 0.21-0.358 0.472-0.431 0.76-0.079 0.286-0.079 0.588 0 0.874 0.067 0.278 0.21 0.532 0.414 0.731 0.214 0.21 0.477 0.362 0.766 0.44 0.288 0.074 0.591 0.074 0.879 0 0.278-0.069 0.532-0.211 0.738-0.411 0.208-0.21 0.357-0.473 0.431-0.76 0.079-0.288 0.079-0.592 0-0.88-0.073-0.277-0.218-0.53-0.42-0.731-0.215-0.211-0.481-0.36-0.772-0.434-0.286-0.080-0.588-0.080-0.874 0z"></path>
<path d="M9.237 24.571l0.153 1.571c0.097 0.042 0.192 0.090 0.284 0.143l0.925 0.537 0.624-1.109 0.369 0.211-1.986 3.446-1.294-0.749c-0.382-0.193-0.684-0.517-0.851-0.914-0.062-0.179-0.082-0.369-0.061-0.557s0.085-0.369 0.186-0.529c0.132-0.25 0.341-0.451 0.596-0.571 0.259-0.108 0.545-0.13 0.817-0.063l-0.165-1.68 0.403 0.263zM8.59 26.377c-0.133 0.034-0.258 0.094-0.368 0.178s-0.201 0.188-0.27 0.308c-0.068 0.12-0.112 0.253-0.128 0.39s-0.005 0.277 0.034 0.41c0.133 0.296 0.364 0.536 0.652 0.68l0.914 0.531 0.993-1.714-0.913-0.531c-0.263-0.198-0.586-0.297-0.914-0.28v0.029z"></path>
<path d="M5.878 21.891l0.255-0.257 1.958 2.029-2.837 2.789-1.889-1.966 0.261-0.257 1.606 1.663 0.97-0.989-1.407-1.474 0.272-0.263 1.435 1.486 1.055-1.034-1.679-1.726z"></path>
<path d="M1.662 19.646l0.136-0.789 0.267 0.040-0.153 0.811 0.755-0.28 0.091 0.251-0.766 0.263 0.63 0.537-0.182 0.206-0.607-0.571-0.142 0.811-0.272-0.051 0.159-0.811-0.76 0.274-0.085-0.223 0.76-0.269-0.63-0.531 0.187-0.206 0.613 0.537z"></path>
</symbol>
<symbol id="icon-mail" viewBox="0 0 32 32">
<path stroke-linejoin="round" stroke-linecap="round" stroke-miterlimit="4" stroke-width="1.3333" d="M6.4 6.667h19.2c1.32 0 2.4 1.050 2.4 2.333v14c0 1.283-1.080 2.333-2.4 2.333h-19.2c-1.32 0-2.4-1.050-2.4-2.333v-14c0-1.283 1.080-2.333 2.4-2.333z"></path>
<path stroke-linejoin="round" stroke-linecap="round" stroke-miterlimit="4" stroke-width="1.3333" d="M26.667 9.333l-10.667 8-10.667-8"></path>
</symbol>
<symbol id="icon-map" viewBox="0 0 32 32">
<path stroke-linejoin="round" stroke-linecap="round" stroke-miterlimit="4" stroke-width="1.3333" d="M26.667 13.818c0 7.636-10.667 14.182-10.667 14.182s-10.667-6.545-10.667-14.182c0-5.422 4.776-9.818 10.667-9.818s10.667 4.396 10.667 9.818v0z"></path>
<path stroke-linejoin="round" stroke-linecap="round" stroke-miterlimit="4" stroke-width="1.3333" d="M16 18.667c2.209 0 4-1.791 4-4s-1.791-4-4-4-4 1.791-4 4c0 2.209 1.791 4 4 4z"></path>
</symbol>
<symbol id="icon-menu" viewBox="0 0 32 32">
<path d="M6.4 11.733v-2.133h19.2v2.133h-19.2zM6.4 17.067h19.2v-2.133h-19.2v2.133zM6.4 22.4h19.2v-2.133h-19.2v2.133z"></path>
</symbol>
<symbol id="icon-phone" viewBox="0 0 32 32">
<path stroke-linejoin="round" stroke-linecap="round" stroke-miterlimit="4" stroke-width="1.3333" d="M26.666 21.337v3.218c0.002 0.604-0.25 1.181-0.695 1.589s-1.042 0.61-1.643 0.556c-3.301-0.359-6.471-1.487-9.257-3.293-2.592-1.647-4.789-3.844-6.436-6.436-1.813-2.798-2.941-5.984-3.293-9.3-0.054-0.6 0.146-1.195 0.552-1.639s0.98-0.698 1.582-0.699h3.218c1.077-0.011 1.995 0.779 2.145 1.845 0.136 1.030 0.388 2.041 0.751 3.014 0.295 0.784 0.106 1.668-0.483 2.263l-1.362 1.362c1.527 2.685 3.75 4.909 6.436 6.436l1.362-1.362c0.595-0.589 1.479-0.777 2.263-0.483 0.973 0.363 1.984 0.615 3.014 0.751 1.079 0.152 1.872 1.088 1.845 2.177z"></path>
</symbol>
<symbol id="icon-twitter" viewBox="0 0 32 32">
<path d="M32 6.078c-1.19 0.522-2.458 0.868-3.78 1.036 1.36-0.812 2.398-2.088 2.886-3.626-1.268 0.756-2.668 1.29-4.16 1.588-1.204-1.282-2.92-2.076-4.792-2.076-3.632 0-6.556 2.948-6.556 6.562 0 0.52 0.044 1.020 0.152 1.496-5.454-0.266-10.28-2.88-13.522-6.862-0.566 0.982-0.898 2.106-0.898 3.316 0 2.272 1.17 4.286 2.914 5.452-1.054-0.020-2.088-0.326-2.964-0.808 0 0.020 0 0.046 0 0.072 0 3.188 2.274 5.836 5.256 6.446-0.534 0.146-1.116 0.216-1.72 0.216-0.42 0-0.844-0.024-1.242-0.112 0.85 2.598 3.262 4.508 6.13 4.57-2.232 1.746-5.066 2.798-8.134 2.798-0.538 0-1.054-0.024-1.57-0.090 2.906 1.874 6.35 2.944 10.064 2.944 12.072 0 18.672-10 18.672-18.668 0-0.29-0.010-0.57-0.024-0.848 1.302-0.924 2.396-2.078 3.288-3.406z"></path>
</symbol>
</defs>
</svg>
